<svg xmlns="http://www.w3.org/2000/svg" xmlns:xlink="http://www.w3.org/1999/xlink" width="350" height="35.317" viewBox="0 0 350 35.317">
  <defs>
    <clipPath id="clip-path">
      <path id="Path_2" data-name="Path 2" d="M80.707.434l13.944,15.5L108.434.614,94.488-14.892Zm4.979,0,8.8-9.787L103.453.614l-8.8,9.787Z" transform="translate(-80.707 14.892)" fill="#d39050"/>
    </clipPath>
    <clipPath id="clip-path-7">
      <path id="Path_14" data-name="Path 14" d="M89.876-15.93,105.917,1.909,90.2,19.387H249.8V15.6H98.582L110.9,1.909,98.378-12.016H249.8V-15.93Z" transform="translate(-89.876 15.93)" fill="#d39050"/>
    </clipPath>
    <clipPath id="clip-path-13">
      <path id="Path_26" data-name="Path 26" d="M100.5-11.53l7.235,8.047L100.7,4.335H249.363V2.2H105.34l5.112-5.684-5.316-5.911H249.363V-11.53Z" transform="translate(-100.499 11.53)" fill="#d39050"/>
    </clipPath>
    <clipPath id="clip-path-19">
      <path id="Path_38" data-name="Path 38" d="M5.6-15.93v3.914H156.818L144.5,1.684,157.018,15.6H5.6v3.783H165.4l-15.921-17.7L165.319-15.93Z" transform="translate(-5.6 15.93)" fill="#d39050"/>
    </clipPath>
    <clipPath id="clip-path-25">
      <path id="Path_50" data-name="Path 50" d="M0-11.529v2.134H145.027l-5.111,5.686L145.232,2.2H0V4.336H149.871l-7.237-8.045,7.033-7.82Z" transform="translate(0 11.529)" fill="#d39050"/>
    </clipPath>
  </defs>
  <g id="Group_61" data-name="Group 61" transform="translate(0 0)">
    <g id="Group_2" data-name="Group 2" transform="translate(161.525 2.31)" clip-path="url(#clip-path)">
      <g id="Group_1" data-name="Group 1" transform="translate(-161.525 -2.309)">
        <path id="Path_1" data-name="Path 1" d="M-171.963,56.718h351V92.168h-351Z" transform="translate(171.963 -56.718)" fill="#d39050"/>
      </g>
    </g>
    <g id="Group_4" data-name="Group 4" transform="translate(161.525 2.31)" clip-path="url(#clip-path)">
      <g id="Group_3" data-name="Group 3" transform="translate(-161.525 -2.309)">
        <path id="Path_3" data-name="Path 3" d="M-171.963,56.718h351V92.168h-351Z" transform="translate(171.963 -56.718)" fill="#d39050"/>
      </g>
    </g>
    <g id="Group_6" data-name="Group 6" transform="translate(161.525 2.31)" clip-path="url(#clip-path)">
      <g id="Group_5" data-name="Group 5" transform="translate(-161.525 -2.309)">
        <path id="Path_5" data-name="Path 5" d="M-171.963,56.718h351V92.168h-351Z" transform="translate(171.963 -56.718)" fill="#d39050"/>
      </g>
    </g>
    <g id="Group_8" data-name="Group 8" transform="translate(161.525 2.31)" clip-path="url(#clip-path)">
      <g id="Group_7" data-name="Group 7" transform="translate(-161.525 -2.309)">
        <path id="Path_7" data-name="Path 7" d="M-171.963,56.718h351V92.168h-351Z" transform="translate(171.963 -56.718)" fill="#d39050"/>
      </g>
    </g>
    <g id="Group_10" data-name="Group 10" transform="translate(161.525 2.31)" clip-path="url(#clip-path)">
      <g id="Group_9" data-name="Group 9" transform="translate(-161.525 -2.309)">
        <path id="Path_9" data-name="Path 9" d="M-171.963,56.718h351V92.168h-351Z" transform="translate(171.963 -56.718)" fill="#d39050"/>
      </g>
    </g>
    <g id="Group_12" data-name="Group 12" transform="translate(161.525 2.31)" clip-path="url(#clip-path)">
      <g id="Group_11" data-name="Group 11" transform="translate(-161.525 -2.309)">
        <path id="Path_11" data-name="Path 11" d="M-171.963,56.718h351V92.168h-351Z" transform="translate(171.963 -56.718)" fill="#d39050"/>
      </g>
    </g>
    <g id="Group_14" data-name="Group 14" transform="translate(179.875 0)" clip-path="url(#clip-path-7)">
      <g id="Group_13" data-name="Group 13" transform="translate(-179.875 0.001)">
        <path id="Path_13" data-name="Path 13" d="M-183.425,58.015h351V93.465h-351Z" transform="translate(183.425 -58.015)" fill="#d39050"/>
      </g>
    </g>
    <g id="Group_16" data-name="Group 16" transform="translate(179.875 0)" clip-path="url(#clip-path-7)">
      <g id="Group_15" data-name="Group 15" transform="translate(-179.875 0.001)">
        <path id="Path_15" data-name="Path 15" d="M-183.425,58.015h351V93.465h-351Z" transform="translate(183.425 -58.015)" fill="#d39050"/>
      </g>
    </g>
    <g id="Group_18" data-name="Group 18" transform="translate(179.875 0)" clip-path="url(#clip-path-7)">
      <g id="Group_17" data-name="Group 17" transform="translate(-179.875 0.001)">
        <path id="Path_17" data-name="Path 17" d="M-183.425,58.015h351V93.465h-351Z" transform="translate(183.425 -58.015)" fill="#d39050"/>
      </g>
    </g>
    <g id="Group_20" data-name="Group 20" transform="translate(179.875 0)" clip-path="url(#clip-path-7)">
      <g id="Group_19" data-name="Group 19" transform="translate(-179.875 0.001)">
        <path id="Path_19" data-name="Path 19" d="M-183.425,58.015h351V93.465h-351Z" transform="translate(183.425 -58.015)" fill="#d39050"/>
      </g>
    </g>
    <g id="Group_22" data-name="Group 22" transform="translate(179.875 0)" clip-path="url(#clip-path-7)">
      <g id="Group_21" data-name="Group 21" transform="translate(-179.875 0.001)">
        <path id="Path_21" data-name="Path 21" d="M-183.425,58.015h351V93.465h-351Z" transform="translate(183.425 -58.015)" fill="#d39050"/>
      </g>
    </g>
    <g id="Group_24" data-name="Group 24" transform="translate(179.875 0)" clip-path="url(#clip-path-7)">
      <g id="Group_23" data-name="Group 23" transform="translate(-179.875 0.001)">
        <path id="Path_23" data-name="Path 23" d="M-183.425,58.015h351V93.465h-351Z" transform="translate(183.425 -58.015)" fill="#d39050"/>
      </g>
    </g>
    <g id="Group_26" data-name="Group 26" transform="translate(201.136 9.792)" clip-path="url(#clip-path-13)">
      <g id="Group_25" data-name="Group 25" transform="translate(-201.136 -9.791)">
        <path id="Path_25" data-name="Path 25" d="M-196.7,52.515h351V87.965h-351Z" transform="translate(196.703 -52.515)" fill="#d39050"/>
      </g>
    </g>
    <g id="Group_28" data-name="Group 28" transform="translate(201.136 9.792)" clip-path="url(#clip-path-13)">
      <g id="Group_27" data-name="Group 27" transform="translate(-201.136 -9.791)">
        <path id="Path_27" data-name="Path 27" d="M-196.7,52.515h351V87.965h-351Z" transform="translate(196.703 -52.515)" fill="#d39050"/>
      </g>
    </g>
    <g id="Group_30" data-name="Group 30" transform="translate(201.136 9.792)" clip-path="url(#clip-path-13)">
      <g id="Group_29" data-name="Group 29" transform="translate(-201.136 -9.791)">
        <path id="Path_29" data-name="Path 29" d="M-196.7,52.515h351V87.965h-351Z" transform="translate(196.703 -52.515)" fill="#d39050"/>
      </g>
    </g>
    <g id="Group_32" data-name="Group 32" transform="translate(201.136 9.792)" clip-path="url(#clip-path-13)">
      <g id="Group_31" data-name="Group 31" transform="translate(-201.136 -9.791)">
        <path id="Path_31" data-name="Path 31" d="M-196.7,52.515h351V87.965h-351Z" transform="translate(196.703 -52.515)" fill="#d39050"/>
      </g>
    </g>
    <g id="Group_34" data-name="Group 34" transform="translate(201.136 9.792)" clip-path="url(#clip-path-13)">
      <g id="Group_33" data-name="Group 33" transform="translate(-201.136 -9.791)">
        <path id="Path_33" data-name="Path 33" d="M-196.7,52.515h351V87.965h-351Z" transform="translate(196.703 -52.515)" fill="#d39050"/>
      </g>
    </g>
    <g id="Group_36" data-name="Group 36" transform="translate(201.136 9.792)" clip-path="url(#clip-path-13)">
      <g id="Group_35" data-name="Group 35" transform="translate(-201.136 -9.791)">
        <path id="Path_35" data-name="Path 35" d="M-196.7,52.515h351V87.965h-351Z" transform="translate(196.703 -52.515)" fill="#d39050"/>
      </g>
    </g>
    <g id="Group_38" data-name="Group 38" transform="translate(11.208 0)" clip-path="url(#clip-path-19)">
      <g id="Group_37" data-name="Group 37" transform="translate(-11.208 0.001)">
        <path id="Path_37" data-name="Path 37" d="M-78.08,58.015h351V93.465h-351Z" transform="translate(78.08 -58.015)" fill="#d39050"/>
      </g>
    </g>
    <g id="Group_40" data-name="Group 40" transform="translate(11.208 0)" clip-path="url(#clip-path-19)">
      <g id="Group_39" data-name="Group 39" transform="translate(-11.208 0.001)">
        <path id="Path_39" data-name="Path 39" d="M-78.08,58.015h351V93.465h-351Z" transform="translate(78.08 -58.015)" fill="#d39050"/>
      </g>
    </g>
    <g id="Group_42" data-name="Group 42" transform="translate(11.208 0)" clip-path="url(#clip-path-19)">
      <g id="Group_41" data-name="Group 41" transform="translate(-11.208 0.001)">
        <path id="Path_41" data-name="Path 41" d="M-78.08,58.015h351V93.465h-351Z" transform="translate(78.08 -58.015)" fill="#d39050"/>
      </g>
    </g>
    <g id="Group_44" data-name="Group 44" transform="translate(11.208 0)" clip-path="url(#clip-path-19)">
      <g id="Group_43" data-name="Group 43" transform="translate(-11.208 0.001)">
        <path id="Path_43" data-name="Path 43" d="M-78.08,58.015h351V93.465h-351Z" transform="translate(78.08 -58.015)" fill="#d39050"/>
      </g>
    </g>
    <g id="Group_46" data-name="Group 46" transform="translate(11.208 0)" clip-path="url(#clip-path-19)">
      <g id="Group_45" data-name="Group 45" transform="translate(-11.208 0.001)">
        <path id="Path_45" data-name="Path 45" d="M-78.08,58.015h351V93.465h-351Z" transform="translate(78.08 -58.015)" fill="#d39050"/>
      </g>
    </g>
    <g id="Group_48" data-name="Group 48" transform="translate(11.208 0)" clip-path="url(#clip-path-19)">
      <g id="Group_47" data-name="Group 47" transform="translate(-11.208 0.001)">
        <path id="Path_47" data-name="Path 47" d="M-78.08,58.015h351V93.465h-351Z" transform="translate(78.08 -58.015)" fill="#d39050"/>
      </g>
    </g>
    <g id="Group_50" data-name="Group 50" transform="translate(0 9.794)" clip-path="url(#clip-path-25)">
      <g id="Group_49" data-name="Group 49" transform="translate(0 -9.793)">
        <path id="Path_49" data-name="Path 49" d="M-71.08,52.514h351V87.964h-351Z" transform="translate(71.08 -52.514)" fill="#d39050"/>
      </g>
    </g>
    <g id="Group_52" data-name="Group 52" transform="translate(0 9.794)" clip-path="url(#clip-path-25)">
      <g id="Group_51" data-name="Group 51" transform="translate(0 -9.793)">
        <path id="Path_51" data-name="Path 51" d="M-71.08,52.514h351V87.964h-351Z" transform="translate(71.08 -52.514)" fill="#d39050"/>
      </g>
    </g>
    <g id="Group_54" data-name="Group 54" transform="translate(0 9.794)" clip-path="url(#clip-path-25)">
      <g id="Group_53" data-name="Group 53" transform="translate(0 -9.793)">
        <path id="Path_53" data-name="Path 53" d="M-71.08,52.514h351V87.964h-351Z" transform="translate(71.08 -52.514)" fill="#d39050"/>
      </g>
    </g>
    <g id="Group_56" data-name="Group 56" transform="translate(0 9.794)" clip-path="url(#clip-path-25)">
      <g id="Group_55" data-name="Group 55" transform="translate(0 -9.793)">
        <path id="Path_55" data-name="Path 55" d="M-71.08,52.514h351V87.964h-351Z" transform="translate(71.08 -52.514)" fill="#d39050"/>
      </g>
    </g>
    <g id="Group_58" data-name="Group 58" transform="translate(0 9.794)" clip-path="url(#clip-path-25)">
      <g id="Group_57" data-name="Group 57" transform="translate(0 -9.793)">
        <path id="Path_57" data-name="Path 57" d="M-71.08,52.514h351V87.964h-351Z" transform="translate(71.08 -52.514)" fill="#d39050"/>
      </g>
    </g>
    <g id="Group_60" data-name="Group 60" transform="translate(0 9.794)" clip-path="url(#clip-path-25)">
      <g id="Group_59" data-name="Group 59" transform="translate(0 -9.793)">
        <path id="Path_59" data-name="Path 59" d="M-71.08,52.514h351V87.964h-351Z" transform="translate(71.08 -52.514)" fill="#d39050"/>
      </g>
    </g>
  </g>
</svg>
